<?xml version="1.0" encoding="UTF-8"?>
<svg width="16" height="16" viewBox="0 0 16 16" fill="none" xmlns="http://www.w3.org/2000/svg">
<path fill-rule="evenodd" clip-rule="evenodd" d="M3 0C1.34315 0 0 1.34315 0 3V13C0 14.6569 1.34315 16 3 16H13C14.6569 16 16 14.6569 16 13V3C16 1.34315 14.6569 0 13 0H3ZM10.9054 11.2467C12.2974 11.2467 13.0974 10.4867 13.0974 9.48667C13.0974 8.63067 12.5454 8.19867 11.5614 7.99867L10.7134 7.83067C10.1774 7.71867 9.70544 7.52667 9.70544 6.98267C9.70544 6.48667 10.1134 6.04667 10.8574 6.04667C11.5774 6.04667 12.0734 6.52667 12.1214 7.21467H13.0174C12.9454 6.07067 12.0414 5.34267 10.8494 5.34267C9.65744 5.34267 8.80944 6.07067 8.80944 7.03867C8.80944 8.01467 9.54544 8.42267 10.3534 8.58267L11.1854 8.74267C11.8494 8.88667 12.1614 9.12667 12.1614 9.60667C12.1614 10.1987 11.6174 10.5427 10.8894 10.5427C10.0094 10.5427 9.54544 10.0707 9.50544 9.34267H8.60944C8.68144 10.4867 9.52144 11.2467 10.9054 11.2467ZM6.806 9.74267L7.326 11.1667H8.262L6.078 5.42267H5.11L2.91 11.1667H3.798L4.326 9.74267H6.806ZM4.59 9.03067L5.574 6.38267L6.542 9.03067H4.59Z" fill="black"/>
</svg>
