<?xml version="1.0" standalone="yes"?>
<svg width="250" height="250" viewBox="0 0 250 250" fill="none" xmlns="http://www.w3.org/2000/svg">
<mask id="mask0_3292_26090" style="mask-type:luminance" maskUnits="userSpaceOnUse" x="0" y="0" width="250" height="250">
<path d="M193.182 0H56.8182C25.4384 0 0 25.4384 0 56.8182V193.182C0 224.562 25.4384 250 56.8182 250H193.182C224.562 250 250 224.562 250 193.182V56.8182C250 25.4384 224.562 0 193.182 0Z" fill="white"/>
</mask>
<g mask="url(#mask0_3292_26090)">
<path d="M250 0H0V250H250V0Z" fill="#F3FBE4"/>
<path d="M193.182 11.3636H56.8183C31.7145 11.3636 11.3638 31.7143 11.3638 56.8182V190.341C11.3638 215.445 31.7145 235.795 56.8183 235.795H193.182C218.286 235.795 238.637 215.445 238.637 190.341V56.8182C238.637 31.7143 218.286 11.3636 193.182 11.3636Z" fill="white"/>
<path d="M193.182 22.7273H56.818C37.9901 22.7273 22.7271 37.9903 22.7271 56.8182V190.341C22.7271 209.169 37.9901 224.432 56.818 224.432H193.182C212.009 224.432 227.272 209.169 227.272 190.341V56.8182C227.272 37.9903 212.009 22.7273 193.182 22.7273Z" fill="url(#paint0_linear_3292_26090)"/>
<mask id="mask1_3292_26090" style="mask-type:alpha" maskUnits="userSpaceOnUse" x="22" y="22" width="206" height="203">
<path d="M193.182 22.7273H56.818C37.9901 22.7273 22.7271 37.9903 22.7271 56.8182V190.341C22.7271 209.169 37.9901 224.432 56.818 224.432H193.182C212.009 224.432 227.272 209.169 227.272 190.341V56.8182C227.272 37.9903 212.009 22.7273 193.182 22.7273Z" fill="url(#paint1_linear_3292_26090)"/>
</mask>
<g mask="url(#mask1_3292_26090)">
<g filter="url(#filter0_df_3292_26090)">
<path d="M0 0.00012207L74.2188 74.2189H132.813L269.531 238.281L203.125 253.906H136.719L0 250V0.00012207Z" fill="url(#paint2_linear_3292_26090)"/>
</g>
<path d="M139.033 -9.96204L-88.2271 260.876" stroke="white" stroke-opacity="0.2" stroke-width="0.5"/>
<path d="M342.492 260.876L115.23 -9.96204" stroke="white" stroke-opacity="0.2" stroke-width="0.5"/>
</g>
<path d="M112.079 50.8372C117.822 43.6602 132.178 43.6602 137.921 50.8372L202.524 131.579C208.267 138.756 201.089 147.727 189.604 147.727H60.3963C48.9114 147.727 41.7332 138.756 47.4756 131.579L112.079 50.8372Z" fill="white"/>
<g filter="url(#filter1_d_3292_26090)">
<path d="M113.925 115.58C118.847 109.201 131.153 109.201 136.075 115.58L191.45 187.351C196.372 193.73 190.219 201.704 180.375 201.704H69.6257C59.7811 201.704 53.6286 193.73 58.5507 187.351L113.925 115.58Z" fill="white"/>
</g>
</g>
<defs>
<filter id="filter0_df_3292_26090" x="-4" y="-3.99988" width="277.531" height="265.906" filterUnits="userSpaceOnUse" color-interpolation-filters="sRGB">
<feFlood flood-opacity="0" result="BackgroundImageFix"/>
<feColorMatrix in="SourceAlpha" type="matrix" values="0 0 0 0 0 0 0 0 0 0 0 0 0 0 0 0 0 0 127 0" result="hardAlpha"/>
<feOffset dy="4"/>
<feGaussianBlur stdDeviation="2"/>
<feComposite in2="hardAlpha" operator="out"/>
<feColorMatrix type="matrix" values="0 0 0 0 0.0705882 0 0 0 0 0.537255 0 0 0 0 0.541176 0 0 0 0.3 0"/>
<feBlend mode="normal" in2="BackgroundImageFix" result="effect1_dropShadow_3292_26090"/>
<feBlend mode="normal" in="SourceGraphic" in2="effect1_dropShadow_3292_26090" result="shape"/>
<feGaussianBlur stdDeviation="2" result="effect2_foregroundBlur_3292_26090"/>
</filter>
<filter id="filter1_d_3292_26090" x="48.8184" y="98.7954" width="152.364" height="106.909" filterUnits="userSpaceOnUse" color-interpolation-filters="sRGB">
<feFlood flood-opacity="0" result="BackgroundImageFix"/>
<feColorMatrix in="SourceAlpha" type="matrix" values="0 0 0 0 0 0 0 0 0 0 0 0 0 0 0 0 0 0 127 0" result="hardAlpha"/>
<feOffset dy="-4"/>
<feGaussianBlur stdDeviation="4"/>
<feComposite in2="hardAlpha" operator="out"/>
<feColorMatrix type="matrix" values="0 0 0 0 0.0746814 0 0 0 0 0.416826 0 0 0 0 0.405325 0 0 0 1 0"/>
<feBlend mode="normal" in2="BackgroundImageFix" result="effect1_dropShadow_3292_26090"/>
<feBlend mode="normal" in="SourceGraphic" in2="effect1_dropShadow_3292_26090" result="shape"/>
</filter>
<linearGradient id="paint0_linear_3292_26090" x1="19.531" y1="-40.3054" x2="122.47" y2="225.412" gradientUnits="userSpaceOnUse">
<stop stop-color="#ACE348"/>
<stop offset="1" stop-color="#25ACA0"/>
</linearGradient>
<linearGradient id="paint1_linear_3292_26090" x1="19.531" y1="-40.3054" x2="122.47" y2="225.412" gradientUnits="userSpaceOnUse">
<stop stop-color="#ACE348"/>
<stop offset="1" stop-color="#25ACA0"/>
</linearGradient>
<linearGradient id="paint2_linear_3292_26090" x1="140.625" y1="160.156" x2="-3.94053e-06" y2="250" gradientUnits="userSpaceOnUse">
<stop stop-color="#12898A"/>
<stop offset="1" stop-color="#ACE348" stop-opacity="0"/>
</linearGradient>
</defs>
</svg>
