<?xml version="1.0" encoding="UTF-8"?>
<svg width="16" height="16" viewBox="0 0 16 16" fill="none" xmlns="http://www.w3.org/2000/svg">
<path fill-rule="evenodd" clip-rule="evenodd" d="M1.86207 0C0.833676 0 0 0.833676 0 1.86207V14.1379C0 15.1663 0.833676 16 1.86207 16H14.1379C15.1663 16 16 15.1663 16 14.1379V1.86207C16 0.833676 15.1663 0 14.1379 0H1.86207ZM10.8222 7.82897C11.5629 7.99696 12.1483 8.36895 12.5783 8.94494C13.0203 9.50892 13.2413 10.1569 13.2413 10.8889C13.2413 11.9689 12.871 12.8148 12.1303 13.4268C11.3897 14.0388 10.3504 14.3448 9.0124 14.3448H2.75858V1.65513H8.81529C10.1055 1.65513 11.1149 1.94313 11.8436 2.51911C12.5843 3.0951 12.9546 3.90507 12.9546 4.94905C12.9546 5.69303 12.7575 6.31701 12.3633 6.82099C11.981 7.31298 11.4673 7.64897 10.8222 7.82897Z" fill="#FA5158"/>
</svg>
