<svg width="26" height="26" viewBox="0 0 26 26" fill="none" xmlns="http://www.w3.org/2000/svg">
<path d="M10.1608 11.0572C11.072 9.4653 11.6045 7.68501 11.717 5.85426C11.8294 4.0235 11.5189 2.19143 10.8094 0.5L5.47675 3.58428L8.35925 8.62865C8.48575 8.84775 8.55235 9.09629 8.55235 9.34928C8.55235 9.60227 8.48575 9.85081 8.35925 10.0699C8.23474 10.2856 8.05643 10.4654 7.84173 10.5917C7.62703 10.718 7.38325 10.7865 7.13419 10.7905H0V17.0528C2.06845 17.0217 4.09316 16.4525 5.87481 15.4012C7.65645 14.3499 9.13359 12.8528 10.1608 11.0572Z" fill="#FF8A0A"/>
<path d="M12.6684 17.2978C12.9187 17.3006 13.164 17.3685 13.38 17.4949C13.5961 17.6212 13.7755 17.8017 13.9007 18.0185L18.174 25.4193L23.5354 22.3206C22.6054 20.215 21.0835 18.425 19.1548 17.1684C17.2262 15.9119 14.9739 15.2429 12.672 15.2429C10.3701 15.2429 8.11787 15.9119 6.18921 17.1684C4.26055 18.425 2.73863 20.215 1.80859 22.3206L7.20608 25.4049L11.4794 18.004C11.5993 17.7933 11.772 17.6174 11.9805 17.4936C12.1889 17.3698 12.426 17.3023 12.6684 17.2978Z" fill="#FF8A0A"/>
<path d="M15.1835 11.0572C16.2177 12.8401 17.6971 14.3241 19.4769 15.3637C21.2568 16.4033 23.276 16.9629 25.3371 16.9879V10.7257H18.1957C17.9499 10.7184 17.71 10.6483 17.499 10.5221C17.2879 10.3959 17.1126 10.2178 16.9898 10.0047C16.8671 9.7916 16.8008 9.55065 16.7975 9.30475C16.7941 9.05885 16.8537 8.81618 16.9706 8.59983L19.8532 3.55545L14.5205 0.5C13.8094 2.19165 13.4992 4.02487 13.6142 5.85631C13.7292 7.68775 14.2663 9.46777 15.1835 11.0572Z" fill="#FF8A0A"/>
</svg>
