<?xml version="1.0" encoding="UTF-8"?>
<svg width="16" height="16" viewBox="0 0 16 16" fill="none" xmlns="http://www.w3.org/2000/svg">
<path fill-rule="evenodd" clip-rule="evenodd" d="M8 15C11.866 15 15 11.866 15 7.99999C15 4.13401 11.866 1 8 1C4.134 1 1 4.13401 1 7.99999C1 11.866 4.134 15 8 15ZM10.1838 4.2609C10.2901 3.88332 9.92364 3.66005 9.589 3.89846L4.91759 7.22635C4.55467 7.4849 4.61176 7.99999 5.00334 7.99999H6.23345V7.99047H8.63088L6.67742 8.67973L5.81625 11.7391C5.70995 12.1167 6.07633 12.34 6.411 12.1015L11.0824 8.77367C11.4453 8.51512 11.3882 7.99999 10.9967 7.99999H9.13124L10.1838 4.2609Z" fill="#4F46E5"/>
</svg>
