<?xml version="1.0" encoding="UTF-8"?>
<svg width="28" height="28" viewBox="0 0 28 28" fill="none" xmlns="http://www.w3.org/2000/svg">
<path d="M12.7978 8.70289C16.6298 10.0554 20.7625 9.98025 24.557 8.51505C24.5945 6.97471 24.1813 5.43437 23.4674 4.04431L23.0918 3.29292C22.979 3.33049 22.8288 3.40564 22.7536 3.48078C19.2973 5.13382 15.3901 5.35924 11.7458 4.04432C9.19114 3.14265 6.41101 3.36807 4.00658 4.57028L3.2552 4.94598C3.29277 5.05868 3.36791 5.20896 3.44305 5.28409C3.89388 6.26089 4.26957 7.31284 4.53255 8.40234C7.1624 7.65096 10.0928 7.72609 12.7978 8.70289Z" fill="#22C55E"/>
<path d="M3.44303 20.011L4.26955 19.5602C5.94428 18.7228 7.79183 18.3175 9.62495 18.3709C10.7526 18.4038 11.8749 18.6103 12.948 18.9966C13.2976 19.1207 13.6483 19.2346 13.9999 19.3384L13.9999 23.3429C12.5454 23.0725 11.0728 23.0339 9.62495 23.2203C8.12303 23.4136 6.64764 23.8491 5.24635 24.5193C5.17121 24.5945 5.02093 24.6696 4.90822 24.7072L4.53253 23.9558C3.89385 22.716 3.51817 21.3635 3.44303 20.011Z" fill="#22C55E"/>
<path d="M3.89386 16.5547C7.08724 15.2398 10.6563 15.1271 13.9248 16.2917C16.9304 17.3437 20.1238 17.5315 23.1293 16.8553C23.0917 15.1647 23.3172 13.5116 23.9183 11.8586C19.9735 13.0232 15.7282 12.9105 11.7834 11.5205C9.52925 10.6939 7.04967 10.6939 4.79552 11.4453C4.83309 13.0608 4.53255 14.7138 3.96901 16.3293C3.96901 16.3293 3.93143 16.442 3.89386 16.5547Z" fill="#22C55E"/>
</svg>
