<svg width="28" height="28" viewBox="0 0 28 28" fill="none" xmlns="http://www.w3.org/2000/svg">
<path d="M7.62939e-06 4.66665C7.62939e-06 2.08932 2.08935 -1.52588e-05 4.66667 -1.52588e-05H23.3333C25.9107 -1.52588e-05 28 2.08932 28 4.66665V23.3333C28 25.9106 25.9107 28 23.3333 28H4.66667C2.08935 28 7.62939e-06 25.9106 7.62939e-06 23.3333V4.66665Z" fill="#BEF264"/>
<rect x="13.4167" y="4.66666" width="1.16667" height="7" rx="0.583333" fill="#022C22"/>
<rect x="13.4167" y="16.3333" width="1.16667" height="7" rx="0.583333" fill="#022C22"/>
<rect x="20.1872" y="6.98785" width="1.16667" height="7" rx="0.583333" transform="rotate(45 20.1872 6.98785)" fill="#022C22"/>
<rect x="11.9376" y="15.2374" width="1.16667" height="7" rx="0.583333" transform="rotate(45 11.9376 15.2374)" fill="#022C22"/>
<rect x="16.3335" y="14.5833" width="1.16667" height="7" rx="0.583333" transform="rotate(-90 16.3335 14.5833)" fill="#022C22"/>
<rect x="4.66675" y="14.5833" width="1.16667" height="7" rx="0.583333" transform="rotate(-90 4.66675 14.5833)" fill="#022C22"/>
<rect x="15.2374" y="16.0624" width="1.16667" height="7" rx="0.583333" transform="rotate(-45 15.2374 16.0624)" fill="#022C22"/>
<rect x="6.98794" y="7.81281" width="1.16667" height="7" rx="0.583333" transform="rotate(-45 6.98794 7.81281)" fill="#022C22"/>
</svg>
