<?xml version="1.0" encoding="UTF-8"?>
<svg width="16" height="16" viewBox="0 0 16 16" fill="none" xmlns="http://www.w3.org/2000/svg">
<path fill-rule="evenodd" clip-rule="evenodd" d="M12.0611 14.6148C13.8401 13.3455 15 11.2645 15 8.91262C15 5.04663 11.866 1.91262 8 1.91262C4.13401 1.91262 1 5.04663 1 8.91262C1 11.3112 2.20634 13.4279 4.04539 14.6893L5.21323 13.5209C5.51895 13.8856 5.85995 14.162 6.23622 14.3503C6.62426 14.5385 7.08872 14.6326 7.62961 14.6326C8.29985 14.6326 8.8231 14.4679 9.19937 14.1385C9.58741 13.8091 9.78142 13.3444 9.78142 12.7444V12.2027C9.59772 12.3497 9.39195 12.4773 9.1641 12.5856C8.69376 12.8091 8.1705 12.9209 7.59434 12.9209C6.80651 12.9209 6.10688 12.7326 5.49544 12.3562C4.88399 11.9797 4.40189 11.4679 4.04914 10.8209C3.69638 10.1738 3.52 9.45616 3.52 8.66793C3.52 7.86793 3.69638 7.15028 4.04914 6.51499C4.40189 5.86793 4.88399 5.36205 5.49544 4.99734C6.10688 4.62087 6.80651 4.43263 7.59434 4.43263C8.18226 4.43263 8.70552 4.5444 9.1641 4.76793C9.41408 4.88048 9.6375 5.01962 9.83433 5.18535V4.60911H12.48V12.6738C12.48 13.4006 12.3404 14.0476 12.0611 14.6148ZM9.07591 10.2738C8.80546 10.4385 8.4821 10.5209 8.10583 10.5209C7.72956 10.5209 7.40032 10.4385 7.11811 10.2738C6.84767 10.1091 6.63601 9.88558 6.48315 9.60322C6.33029 9.3091 6.25386 8.99734 6.25386 8.66793C6.25386 8.31499 6.33029 7.99734 6.48315 7.71499C6.63601 7.43263 6.85355 7.20911 7.13575 7.0444C7.41796 6.87969 7.74132 6.79734 8.10583 6.79734C8.4821 6.79734 8.80546 6.87969 9.07591 7.0444C9.35811 7.20911 9.56977 7.43263 9.71087 7.71499C9.86373 7.99734 9.94016 8.31499 9.94016 8.66793C9.94016 9.02087 9.86373 9.33852 9.71087 9.62087C9.56977 9.89146 9.35811 10.1091 9.07591 10.2738Z" fill="url(#paint0_linear_2372_12757)"/>
<defs>
<linearGradient id="paint0_linear_2372_12757" x1="1.06562" y1="1.91262" x2="17.4143" y2="9.45855" gradientUnits="userSpaceOnUse">
<stop stop-color="#46BAEB"/>
<stop offset="0.380208" stop-color="#AF2CFF"/>
<stop offset="0.651042" stop-color="#F790AF"/>
<stop offset="1" stop-color="#C1ABFF"/>
</linearGradient>
</defs>
</svg>
