<?xml version="1.0" encoding="UTF-8"?>
<svg width="16" height="16" viewBox="0 0 16 16" fill="none" xmlns="http://www.w3.org/2000/svg">
<path d="M2.65888 10.6588C2.65888 11.4391 2.82695 12.1801 3.12885 12.8477C1.28379 12.0133 0 10.1565 0 7.9999C0 5.84328 1.28379 3.9865 3.12885 3.1521C2.82695 3.81967 2.65888 4.56072 2.65888 5.34102C2.65888 6.30962 2.91784 7.21773 3.37031 7.9999C2.91784 8.78208 2.65888 9.69019 2.65888 10.6588Z" fill="#AA8AFF"/>
<path d="M13.3411 10.6588C13.3411 11.4391 13.1731 12.1801 12.8712 12.8477C14.7162 12.0133 16 10.1565 16 7.9999C16 5.84328 14.7162 3.9865 12.8712 3.1521C13.1731 3.81967 13.3411 4.56072 13.3411 5.34102C13.3411 6.30962 13.0822 7.21773 12.6297 7.9999C13.0822 8.78208 13.3411 9.69019 13.3411 10.6588Z" fill="#AA8AFF"/>
<path d="M5.34109 2.65888C4.5608 2.65888 3.81975 2.82695 3.15217 3.12885C3.98658 1.28379 5.84335 -3.06173e-07 7.99998 -2.11904e-07C10.1566 -1.17635e-07 12.0134 1.28379 12.8478 3.12885C12.1802 2.82695 11.4392 2.65888 10.6589 2.65888C9.69026 2.65888 8.78215 2.91784 7.99998 3.37031C7.2178 2.91784 6.30969 2.65888 5.34109 2.65888Z" fill="#AA8AFF"/>
<path d="M5.34109 13.3411C4.5608 13.3411 3.81975 13.1731 3.15217 12.8712C3.98658 14.7162 5.84335 16 7.99998 16C10.1566 16 12.0134 14.7162 12.8478 12.8712C12.1802 13.1731 11.4392 13.3411 10.6589 13.3411C9.69026 13.3411 8.78215 13.0822 7.99998 12.6297C7.2178 13.0822 6.30969 13.3411 5.34109 13.3411Z" fill="#AA8AFF"/>
<path d="M10.6356 8.0002C10.6356 7.2199 10.4676 6.47885 10.1656 5.81128C11.182 6.27094 12.0281 7.04083 12.5831 8.0002C12.0281 8.95956 11.182 9.72946 10.1656 10.1891C10.4676 9.52154 10.6356 8.78049 10.6356 8.0002Z" fill="#AA8AFF"/>
<path d="M5.271 8.0002C5.271 7.2199 5.43907 6.47885 5.74097 5.81128C4.72457 6.27094 3.87851 7.04083 3.32354 8.0002C3.87851 8.95956 4.72457 9.72946 5.74097 10.1891C5.43907 9.52154 5.271 8.78049 5.271 8.0002Z" fill="#AA8AFF"/>
<path d="M7.95329 10.6821C8.73359 10.6821 9.47464 10.5141 10.1422 10.2122C9.68255 11.2286 8.91266 12.0746 7.95329 12.6296C6.99393 12.0746 6.22403 11.2286 5.76437 10.2122C6.43195 10.5141 7.173 10.6821 7.95329 10.6821Z" fill="#AA8AFF"/>
<path d="M7.95329 5.31788C8.73359 5.31788 9.47464 5.48594 10.1422 5.78784C9.68255 4.77145 8.91266 3.92538 7.95329 3.37041C6.99393 3.92538 6.22403 4.77145 5.76437 5.78784C6.43195 5.48594 7.173 5.31788 7.95329 5.31788Z" fill="#AA8AFF"/>
</svg>
