<svg width="16" height="16" viewBox="0 0 16 16" fill="none" xmlns="http://www.w3.org/2000/svg">
<g opacity="0.4">
<path d="M14 6.66663C13.8232 6.66663 13.6536 6.59639 13.5286 6.47137C13.4036 6.34634 13.3333 6.17677 13.3333 5.99996V3.60663L10.2933 6.66663C10.2311 6.73115 10.1566 6.78247 10.0741 6.81752C9.99164 6.85258 9.90295 6.87064 9.81333 6.87064C9.72372 6.87064 9.63503 6.85258 9.55255 6.81752C9.47008 6.78247 9.39552 6.73115 9.33333 6.66663C9.20917 6.54172 9.13947 6.37275 9.13947 6.19663C9.13947 6.0205 9.20917 5.85154 9.33333 5.72663L12.3933 2.66663H10C9.82319 2.66663 9.65362 2.59639 9.52859 2.47137C9.40357 2.34634 9.33333 2.17677 9.33333 1.99996C9.33333 1.82315 9.40357 1.65358 9.52859 1.52856C9.65362 1.40353 9.82319 1.33329 10 1.33329H14C14.0871 1.33435 14.1732 1.35247 14.2533 1.38663C14.4162 1.45428 14.5457 1.58373 14.6133 1.74663C14.6475 1.82678 14.6656 1.91284 14.6667 1.99996V5.99996C14.6667 6.17677 14.5964 6.34634 14.4714 6.47137C14.3464 6.59639 14.1768 6.66663 14 6.66663ZM5.8 9.33329C5.92753 9.22408 6.09158 9.16701 6.25937 9.17349C6.42715 9.17997 6.58631 9.24952 6.70504 9.36825C6.82377 9.48698 6.89333 9.64614 6.89981 9.81392C6.90629 9.98171 6.84922 10.1458 6.74 10.2733L2.56 14.46C2.49771 14.5217 2.42383 14.5706 2.3426 14.6038C2.26138 14.637 2.1744 14.6538 2.08667 14.6533C1.99893 14.6538 1.91195 14.637 1.83073 14.6038C1.7495 14.5706 1.67563 14.5217 1.61333 14.46C1.55085 14.398 1.50125 14.3243 1.46741 14.243C1.43356 14.1618 1.41613 14.0746 1.41613 13.9866C1.41613 13.8986 1.43356 13.8115 1.46741 13.7302C1.50125 13.649 1.55085 13.5753 1.61333 13.5133L5.8 9.33329ZM10 13.3333H12.3933L1.52667 2.47329C1.40113 2.34776 1.3306 2.1775 1.3306 1.99996C1.3306 1.82243 1.40113 1.65216 1.52667 1.52663C1.6522 1.40109 1.82246 1.33057 2 1.33057C2.17753 1.33057 2.3478 1.40109 2.47333 1.52663L13.3333 12.3933V9.99996C13.3333 9.82315 13.4036 9.65358 13.5286 9.52856C13.6536 9.40353 13.8232 9.33329 14 9.33329C14.1768 9.33329 14.3464 9.40353 14.4714 9.52856C14.5964 9.65358 14.6667 9.82315 14.6667 9.99996V14C14.6656 14.0871 14.6475 14.1731 14.6133 14.2533C14.5457 14.4162 14.4162 14.5456 14.2533 14.6133C14.1732 14.6475 14.0871 14.6656 14 14.6666H10C9.82319 14.6666 9.65362 14.5964 9.52859 14.4714C9.40357 14.3463 9.33333 14.1768 9.33333 14C9.33333 13.8231 9.40357 13.6536 9.52859 13.5286C9.65362 13.4035 9.82319 13.3333 10 13.3333Z" fill="white"/>
</g>
</svg>
