<svg width="28" height="28" viewBox="0 0 28 28" fill="none" xmlns="http://www.w3.org/2000/svg">
<path d="M6.96784e-08 16.6862L0 22.5293C-7.69648e-09 23.1747 0.523208 23.6979 1.16862 23.6979H4.67447C5.31988 23.6979 5.84308 23.1747 5.84308 22.5293V17.8548C5.84308 13.9823 8.98233 10.8431 12.8548 10.8431H17.5293C18.1747 10.8431 18.6979 10.3199 18.6979 9.67447V6.16862C18.6979 5.52321 18.1747 5 17.5293 5L11.6862 5C5.23208 5 1.46643e-07 10.2321 6.96784e-08 16.6862Z" fill="#FF7100"/>
<path d="M28 12.0117V6.16862C28 5.52321 27.4768 5 26.8314 5L23.3255 5C22.6801 5 22.1569 5.52321 22.1569 6.16862V10.8431C22.1569 14.7155 19.0177 17.8548 15.1452 17.8548H10.4707C9.82533 17.8548 9.30212 18.378 9.30212 19.0234V22.5293C9.30212 23.1747 9.82533 23.6979 10.4707 23.6979H16.3138C22.7679 23.6979 28 18.4658 28 12.0117Z" fill="#530031"/>
</svg>
