<svg width="33" height="28" viewBox="0 0 33 28" fill="none" xmlns="http://www.w3.org/2000/svg">
<path fill-rule="evenodd" clip-rule="evenodd" d="M23.8432 0H6.2217C6.09758 0 5.97728 0.0172934 5.86021 0.0477767C5.83667 0.0540256 5.81431 0.0637128 5.79185 0.0734368C5.77534 0.0805889 5.75878 0.0877609 5.74168 0.0935993C5.72784 0.0988038 5.71393 0.103881 5.70001 0.108962C5.6418 0.130207 5.58341 0.151522 5.52909 0.182509C5.50345 0.19725 5.48055 0.214944 5.45775 0.232567C5.44232 0.244495 5.42693 0.25639 5.41075 0.267315C5.40144 0.273893 5.39207 0.280425 5.3827 0.286962C5.33401 0.320915 5.28512 0.355006 5.24216 0.39638C5.2162 0.421845 5.19404 0.450634 5.1717 0.479638C5.16293 0.491029 5.15414 0.502453 5.14508 0.513721C5.13328 0.527525 5.12085 0.540921 5.1084 0.554347C5.08084 0.584064 5.05315 0.613923 5.03183 0.648649L0.21298 8.16316C0.20293 8.17959 0.195836 8.19725 0.188676 8.21507C0.183065 8.22904 0.177413 8.24311 0.170267 8.25676C0.164267 8.26746 0.156547 8.27749 0.148746 8.28763C0.13859 8.30083 0.128296 8.3142 0.121481 8.32945C0.115085 8.34375 0.111775 8.35839 0.108504 8.37286C0.105313 8.38698 0.102157 8.40094 0.0962067 8.41426C0.0705899 8.48239 0.0496427 8.55218 0.0335097 8.62315C0.0211741 8.67854 0.0117566 8.73453 0.0052961 8.7909C-0.000731296 8.86125 -0.00161531 8.93195 0.00265108 9.00243L0.0032019 9.00967C0.00741161 9.06502 0.0115542 9.11948 0.0202846 9.17341C0.0324787 9.24016 0.0532467 9.3029 0.0744915 9.36709L0.0768098 9.37409C0.0801735 9.38363 0.0834789 9.39316 0.0867784 9.40268C0.103082 9.44971 0.11924 9.49632 0.141564 9.54077C0.146044 9.55015 0.149234 9.56022 0.152444 9.57035C0.155553 9.58015 0.158681 9.59002 0.163018 9.59939C0.17951 9.63 0.201132 9.65627 0.222769 9.68256C0.234291 9.69656 0.245817 9.71057 0.256574 9.72524C0.266345 9.73974 0.274596 9.75453 0.28275 9.76915C0.295197 9.79146 0.307416 9.81336 0.324463 9.8332L14.8894 26.9905C15.1405 27.2861 15.517 27.4962 15.8923 27.4855C15.897 27.4855 15.9018 27.4879 15.905 27.4879C15.9259 27.4891 15.9459 27.4891 15.9671 27.4891H15.97C16.0959 27.4891 16.2194 27.4656 16.3382 27.434C16.3735 27.4228 16.4054 27.4117 16.4406 27.3982C16.5291 27.3669 16.6143 27.3268 16.6947 27.2785C16.7013 27.2746 16.708 27.2708 16.7148 27.2669C16.7357 27.2549 16.7571 27.2425 16.7771 27.2292C16.873 27.1628 16.963 27.0866 17.0406 26.9946L31.7551 9.83759C31.766 9.82466 31.7742 9.81013 31.7823 9.79562C31.7882 9.78515 31.7941 9.77468 31.801 9.7648C31.8098 9.75374 31.8194 9.74337 31.829 9.73297C31.8452 9.71555 31.8615 9.69805 31.874 9.67707C31.8869 9.6568 31.8959 9.63499 31.905 9.61298C31.9107 9.59904 31.9165 9.58501 31.9233 9.57126C31.9481 9.52582 31.9715 9.48 31.9899 9.43076C32.0175 9.35924 32.0364 9.28665 32.0528 9.21396C32.0548 9.20463 32.0569 9.19538 32.0589 9.1862C32.0676 9.1468 32.0761 9.10841 32.0799 9.06848C32.0893 8.98748 32.0858 8.90854 32.0799 8.82823C32.0785 8.81013 32.078 8.79249 32.0775 8.77518C32.0767 8.74708 32.076 8.71985 32.0717 8.69301C32.0558 8.591 32.0234 8.49115 31.9839 8.39501C31.9796 8.3849 31.9774 8.3747 31.9752 8.36447C31.9728 8.35363 31.9705 8.34275 31.9657 8.3319C31.9643 8.33048 31.9631 8.32891 31.9621 8.32721C31.9621 8.3251 31.9612 8.32394 31.9601 8.32265L31.9598 8.32222L30.3273 4.86523L19.9108 17.2461L14.203 17.7441L13.7037 12.0516L23.8432 0Z" fill="url(#paint0_linear_1594_950)" style=""/>
<defs>
<linearGradient id="paint0_linear_1594_950" x1="16.0428" y1="0" x2="16.0428" y2="27.4891" gradientUnits="userSpaceOnUse">
<stop stop-color="#7A293E" style="stop-color:#7A293E;stop-color:color(display-p3 0.4800 0.1600 0.2417);stop-opacity:1;"/>
<stop offset="1" stop-color="#FA9EB5" style="stop-color:#FA9EB5;stop-color:color(display-p3 0.9812 0.6188 0.7111);stop-opacity:1;"/>
</linearGradient>
</defs>
</svg>
