<svg width="16" height="16" viewBox="0 0 16 16" fill="none" xmlns="http://www.w3.org/2000/svg">
<path d="M6.66669 3.33317C6.53483 3.33317 6.40594 3.37227 6.29631 3.44552C6.18667 3.51878 6.10123 3.6229 6.05077 3.74471C6.00031 3.86653 5.98711 4.00058 6.01283 4.1299C6.03855 4.25922 6.10205 4.37801 6.19528 4.47124C6.28852 4.56448 6.40731 4.62797 6.53663 4.65369C6.66595 4.67942 6.79999 4.66622 6.92181 4.61576C7.04363 4.5653 7.14775 4.47985 7.221 4.37022C7.29425 4.26058 7.33335 4.13169 7.33335 3.99984C7.33335 3.82303 7.26312 3.65346 7.13809 3.52843C7.01307 3.40341 6.8435 3.33317 6.66669 3.33317ZM4.00002 3.33317C3.86817 3.33317 3.73927 3.37227 3.62964 3.44552C3.52001 3.51878 3.43456 3.6229 3.3841 3.74471C3.33364 3.86653 3.32044 4.00058 3.34616 4.1299C3.37189 4.25922 3.43538 4.37801 3.52862 4.47124C3.62185 4.56448 3.74064 4.62797 3.86996 4.65369C3.99928 4.67942 4.13332 4.66622 4.25514 4.61576C4.37696 4.5653 4.48108 4.47985 4.55433 4.37022C4.62759 4.26058 4.66669 4.13169 4.66669 3.99984C4.66669 3.82303 4.59645 3.65346 4.47142 3.52843C4.3464 3.40341 4.17683 3.33317 4.00002 3.33317ZM9.33335 3.33317C9.2015 3.33317 9.07261 3.37227 8.96297 3.44552C8.85334 3.51878 8.76789 3.6229 8.71743 3.74471C8.66698 3.86653 8.65377 4.00058 8.6795 4.1299C8.70522 4.25922 8.76871 4.37801 8.86195 4.47124C8.95518 4.56448 9.07397 4.62797 9.20329 4.65369C9.33261 4.67942 9.46666 4.66622 9.58848 4.61576C9.71029 4.5653 9.81441 4.47985 9.88767 4.37022C9.96092 4.26058 10 4.13169 10 3.99984C10 3.82303 9.92978 3.65346 9.80476 3.52843C9.67973 3.40341 9.51016 3.33317 9.33335 3.33317ZM13.3334 0.666504H2.66669C2.13625 0.666504 1.62755 0.877218 1.25247 1.25229C0.877401 1.62736 0.666687 2.13607 0.666687 2.6665V13.3332C0.666687 13.8636 0.877401 14.3723 1.25247 14.7474C1.62755 15.1225 2.13625 15.3332 2.66669 15.3332H13.3334C13.8638 15.3332 14.3725 15.1225 14.7476 14.7474C15.1226 14.3723 15.3334 13.8636 15.3334 13.3332V2.6665C15.3334 2.13607 15.1226 1.62736 14.7476 1.25229C14.3725 0.877218 13.8638 0.666504 13.3334 0.666504ZM14 13.3332C14 13.51 13.9298 13.6796 13.8048 13.8046C13.6797 13.9296 13.5102 13.9998 13.3334 13.9998H2.66669C2.48988 13.9998 2.32031 13.9296 2.19528 13.8046C2.07026 13.6796 2.00002 13.51 2.00002 13.3332V7.33317H14V13.3332ZM14 5.99984H2.00002V2.6665C2.00002 2.48969 2.07026 2.32012 2.19528 2.1951C2.32031 2.07008 2.48988 1.99984 2.66669 1.99984H13.3334C13.5102 1.99984 13.6797 2.07008 13.8048 2.1951C13.9298 2.32012 14 2.48969 14 2.6665V5.99984Z" fill="#3758F9"/>
</svg>
