<svg width="32" height="32" viewBox="0 0 32 32" fill="none" xmlns="http://www.w3.org/2000/svg">
<path d="M29.4058 2.91972C29.9095 3.4239 30.2895 4.0338 30.517 4.70323C30.7445 5.37265 30.8137 6.08405 30.7192 6.78354C30.6246 7.48303 30.3689 8.15227 29.9714 8.74056C29.5739 9.32886 29.0451 9.82079 28.4248 10.1791C23.9539 12.7553 18.7367 13.8036 13.592 13.1595C9.802 12.685 6.20942 11.3118 3.1143 9.18419C1.28137 7.9242 1.28282 5.33704 2.85526 3.76394L3.81787 2.80093C5.36863 1.24952 7.86605 1.29921 9.79841 2.33733C11.3196 3.15452 12.9921 3.69413 14.735 3.91704C17.8074 4.30999 20.9261 3.69677 23.6061 2.17278C24.5184 1.64593 25.5841 1.43257 26.6341 1.56654C27.6841 1.7005 28.6585 2.17412 29.4028 2.91233L29.4058 2.91972Z" fill="#3B82F6"/>
<path d="M29.4333 2.78473C28.5531 1.9446 27.3595 1.47266 26.115 1.47266C24.8705 1.47266 23.677 1.9446 22.7968 2.78473L2.87666 21.8074C1.99689 22.648 1.50269 23.7878 1.50269 24.9762C1.50269 26.1646 1.99689 27.3044 2.87666 28.145C3.3123 28.5613 3.82958 28.8916 4.39895 29.1169C4.96831 29.3423 5.5786 29.4583 6.19492 29.4583C6.81125 29.4583 7.42154 29.3423 7.9909 29.1169C8.56027 28.8916 9.07755 28.5613 9.51319 28.145L29.4333 9.12229C29.8693 8.70628 30.2151 8.2123 30.4511 7.66858C30.6871 7.12486 30.8085 6.54207 30.8085 5.95351C30.8085 5.36495 30.6871 4.78216 30.4511 4.23844C30.2151 3.69473 29.8693 3.20075 29.4333 2.78473Z" fill="url(#paint0_linear_202_747)"/>
<path d="M2.59439 21.5771C2.09068 22.081 1.71059 22.6907 1.48292 23.3599C1.25526 24.0292 1.186 24.7405 1.28038 25.4398C1.37476 26.1392 1.6303 26.8083 2.02766 27.3966C2.42502 27.9848 2.95376 28.4767 3.57383 28.835C8.04509 31.4107 13.2623 32.4589 18.407 31.8151C22.1966 31.3409 25.789 29.9684 28.8842 27.8417C30.7179 26.5818 30.7166 23.9939 29.1436 22.4207L28.1793 21.4561C26.6285 19.905 24.1313 19.9549 22.1992 20.993C20.6779 21.8103 19.0052 22.35 17.2622 22.5729C14.1898 22.9659 11.071 22.3526 8.39104 20.8287C7.47771 20.3032 6.41156 20.0914 5.36155 20.227C4.31153 20.3626 3.33771 20.8377 2.59439 21.5771Z" fill="url(#paint1_linear_202_747)"/>
<defs>
<linearGradient id="paint0_linear_202_747" x1="30.5057" y1="4.19069" x2="10.9321" y2="21.0511" gradientUnits="userSpaceOnUse">
<stop stop-color="#2563EB"/>
<stop offset="0.15" stop-color="#2563EB"/>
<stop offset="0.57" stop-color="#3B82F6" stop-opacity="0.8"/>
<stop offset="0.87" stop-color="#3B82F6" stop-opacity="0.12"/>
<stop offset="1" stop-color="#3B82F6" stop-opacity="0"/>
</linearGradient>
<linearGradient id="paint1_linear_202_747" x1="1.61948" y1="25.1934" x2="31.8039" y2="25.4183" gradientUnits="userSpaceOnUse">
<stop stop-color="#3B82F6"/>
<stop offset="0.67" stop-color="#2563EB"/>
<stop offset="1" stop-color="#1D4ED8"/>
</linearGradient>
</defs>
</svg>
