<?xml version="1.0" encoding="UTF-8"?>
<svg width="16" height="16" viewBox="0 0 16 16" fill="none" xmlns="http://www.w3.org/2000/svg">
<path d="M13.4432 5.58669H9.6288V0.780544C9.6288 0.540237 9.47622 0.29993 9.32365 0.139725C9.0185 -0.100582 8.48448 -0.0204795 8.25561 0.29993L2.15258 9.11119C2.07629 9.2714 2 9.4316 2 9.59181C2 10.0724 2.30515 10.3928 2.76288 10.3928H6.57728V15.199C6.57728 15.6796 6.88243 16 7.34016 16C7.56902 16 7.79789 15.8398 7.95046 15.6796L14.0535 6.86833C14.1298 6.70812 14.2061 6.54792 14.2061 6.38771C14.2061 5.9071 13.9009 5.58669 13.4432 5.58669Z" fill="#FFD55D"/>
</svg>
